<svg width="23" height="28" viewBox="0 0 23 28" fill="none" xmlns="http://www.w3.org/2000/svg">
<path d="M6.25468 27.2939C5.59729 27.2939 4.94425 27.0272 4.48328 26.5123L4.31221 26.322C3.70556 25.6451 3.55989 24.681 3.93895 23.8626L8.4972 14.0382L3.97085 3.91527C3.55554 2.98581 3.80559 1.917 4.59416 1.25634C5.43275 0.555351 6.67579 0.520688 7.55062 1.17357L21.8806 11.8369C22.593 12.3667 23.0018 13.1724 23.0018 14.0466C23.0018 14.9202 22.593 15.7259 21.8806 16.2557L7.67745 26.8242C7.25489 27.1404 6.75407 27.2939 6.25468 27.2939ZM10.6839 13.6222C10.8071 13.8974 10.8049 14.2108 10.6774 14.4845L5.91982 24.7383C5.89156 24.7998 5.90315 24.8719 5.94809 24.9236L6.11914 25.1132L6.11987 25.1146C6.18075 25.1825 6.28584 25.1931 6.35904 25.1379L20.5629 14.5694C20.7926 14.3975 20.8274 14.1683 20.8274 14.0474C20.8274 13.9257 20.7926 13.6965 20.5629 13.5246L6.23365 2.86132C6.20103 2.83798 6.16335 2.82594 6.12566 2.82594C6.08435 2.82594 6.04376 2.84011 6.01042 2.8684C5.95171 2.91721 5.93287 2.99784 5.96404 3.06786L10.6839 13.6222Z" fill="url(#paint0_linear_1326_2099)"/>
<path d="M1.08651 22.839C0.936477 22.839 0.784283 22.8086 0.638599 22.7443C0.0921028 22.5024 -0.150711 21.8742 0.0971697 21.3402L3.45442 14.1047L0.118913 6.64637C-0.120995 6.1095 0.130505 5.48422 0.680625 5.24937C1.23147 5.01595 1.8722 5.25998 2.1121 5.79757L5.64042 13.6881C5.76364 13.9632 5.76146 14.2766 5.63389 14.5503L2.07731 22.2159C1.89539 22.6077 1.50109 22.839 1.08651 22.839Z" fill="url(#paint1_linear_1326_2099)"/>
<defs>
<linearGradient id="paint0_linear_1326_2099" x1="-0.199565" y1="-2.9055" x2="22.8677" y2="36.8463" gradientUnits="userSpaceOnUse">
<stop offset="0.00052083" stop-color="#94DBC4"/>
<stop offset="1" stop-color="#28A271"/>
</linearGradient>
<linearGradient id="paint1_linear_1326_2099" x1="-6.84805" y1="0.951447" x2="16.2192" y2="40.7032" gradientUnits="userSpaceOnUse">
<stop offset="0.00052083" stop-color="#CEF5E5"/>
<stop offset="1" stop-color="#29AB87"/>
</linearGradient>
</defs>
</svg>
