<svg width="242" height="271" viewBox="0 0 242 271" fill="none" xmlns="http://www.w3.org/2000/svg">
<rect y="0.561768" width="4" height="4" fill="#D9D9D9"/>
<rect x="14" y="0.561768" width="4" height="4" fill="#D9D9D9"/>
<rect x="28" y="0.561768" width="4" height="4" fill="#D9D9D9"/>
<rect x="42" y="0.561768" width="4" height="4" fill="#D9D9D9"/>
<rect x="56" y="0.561768" width="4" height="4" fill="#D9D9D9"/>
<rect x="70" y="0.561768" width="4" height="4" fill="#D9D9D9"/>
<rect x="84" y="0.561768" width="4" height="4" fill="#D9D9D9"/>
<rect x="98" y="0.561768" width="4" height="4" fill="#D9D9D9"/>
<rect x="112" y="0.561768" width="4" height="4" fill="#D9D9D9"/>
<rect x="126" y="0.561768" width="4" height="4" fill="#D9D9D9"/>
<rect x="140" y="0.561768" width="4" height="4" fill="#D9D9D9"/>
<rect x="154" y="0.561768" width="4" height="4" fill="#D9D9D9"/>
<rect x="168" y="0.561768" width="4" height="4" fill="#D9D9D9"/>
<rect x="182" y="0.561768" width="4" height="4" fill="#D9D9D9"/>
<rect x="196" y="0.561768" width="4" height="4" fill="#D9D9D9"/>
<rect x="210" y="0.561768" width="4" height="4" fill="#D9D9D9"/>
<rect x="224" y="0.561768" width="4" height="4" fill="#D9D9D9"/>
<rect x="238" y="0.561768" width="4" height="4" fill="#D9D9D9"/>
<rect y="14.5618" width="4" height="4" fill="#D9D9D9"/>
<rect x="14" y="14.5618" width="4" height="4" fill="#D9D9D9"/>
<rect x="28" y="14.5618" width="4" height="4" fill="#D9D9D9"/>
<rect x="42" y="14.5618" width="4" height="4" fill="#D9D9D9"/>
<rect x="56" y="14.5618" width="4" height="4" fill="#D9D9D9"/>
<rect x="70" y="14.5618" width="4" height="4" fill="#D9D9D9"/>
<rect x="84" y="14.5618" width="4" height="4" fill="#D9D9D9"/>
<rect x="98" y="14.5618" width="4" height="4" fill="#D9D9D9"/>
<rect x="112" y="14.5618" width="4" height="4" fill="#D9D9D9"/>
<rect x="126" y="14.5618" width="4" height="4" fill="#D9D9D9"/>
<rect x="140" y="14.5618" width="4" height="4" fill="#D9D9D9"/>
<rect x="154" y="14.5618" width="4" height="4" fill="#D9D9D9"/>
<rect x="168" y="14.5618" width="4" height="4" fill="#D9D9D9"/>
<rect x="182" y="14.5618" width="4" height="4" fill="#D9D9D9"/>
<rect x="196" y="14.5618" width="4" height="4" fill="#D9D9D9"/>
<rect x="210" y="14.5618" width="4" height="4" fill="#D9D9D9"/>
<rect x="224" y="14.5618" width="4" height="4" fill="#D9D9D9"/>
<rect x="238" y="14.5618" width="4" height="4" fill="#D9D9D9"/>
<rect y="28.5618" width="4" height="4" fill="#D9D9D9"/>
<rect x="14" y="28.5618" width="4" height="4" fill="#D9D9D9"/>
<rect x="28" y="28.5618" width="4" height="4" fill="#D9D9D9"/>
<rect x="42" y="28.5618" width="4" height="4" fill="#D9D9D9"/>
<rect x="56" y="28.5618" width="4" height="4" fill="#D9D9D9"/>
<rect x="70" y="28.5618" width="4" height="4" fill="#D9D9D9"/>
<rect x="84" y="28.5618" width="4" height="4" fill="#D9D9D9"/>
<rect x="98" y="28.5618" width="4" height="4" fill="#D9D9D9"/>
<rect x="112" y="28.5618" width="4" height="4" fill="#D9D9D9"/>
<rect x="126" y="28.5618" width="4" height="4" fill="#D9D9D9"/>
<rect x="140" y="28.5618" width="4" height="4" fill="#D9D9D9"/>
<rect x="154" y="28.5618" width="4" height="4" fill="#D9D9D9"/>
<rect x="168" y="28.5618" width="4" height="4" fill="#D9D9D9"/>
<rect x="182" y="28.5618" width="4" height="4" fill="#D9D9D9"/>
<rect x="196" y="28.5618" width="4" height="4" fill="#D9D9D9"/>
<rect x="210" y="28.5618" width="4" height="4" fill="#D9D9D9"/>
<rect x="224" y="28.5618" width="4" height="4" fill="#D9D9D9"/>
<rect x="238" y="28.5618" width="4" height="4" fill="#D9D9D9"/>
<rect y="42.5618" width="4" height="4" fill="#D9D9D9"/>
<rect x="14" y="42.5618" width="4" height="4" fill="#D9D9D9"/>
<rect x="28" y="42.5618" width="4" height="4" fill="#D9D9D9"/>
<rect x="42" y="42.5618" width="4" height="4" fill="#D9D9D9"/>
<rect x="56" y="42.5618" width="4" height="4" fill="#D9D9D9"/>
<rect x="70" y="42.5618" width="4" height="4" fill="#D9D9D9"/>
<rect x="84" y="42.5618" width="4" height="4" fill="#D9D9D9"/>
<rect x="98" y="42.5618" width="4" height="4" fill="#D9D9D9"/>
<rect x="112" y="42.5618" width="4" height="4" fill="#D9D9D9"/>
<rect x="126" y="42.5618" width="4" height="4" fill="#D9D9D9"/>
<rect x="140" y="42.5618" width="4" height="4" fill="#D9D9D9"/>
<rect x="154" y="42.5618" width="4" height="4" fill="#D9D9D9"/>
<rect x="168" y="42.5618" width="4" height="4" fill="#D9D9D9"/>
<rect x="182" y="42.5618" width="4" height="4" fill="#D9D9D9"/>
<rect x="196" y="42.5618" width="4" height="4" fill="#D9D9D9"/>
<rect x="210" y="42.5618" width="4" height="4" fill="#D9D9D9"/>
<rect x="224" y="42.5618" width="4" height="4" fill="#D9D9D9"/>
<rect x="238" y="42.5618" width="4" height="4" fill="#D9D9D9"/>
<rect y="56.5618" width="4" height="4" fill="#D9D9D9"/>
<rect x="14" y="56.5618" width="4" height="4" fill="#D9D9D9"/>
<rect x="28" y="56.5618" width="4" height="4" fill="#D9D9D9"/>
<rect x="42" y="56.5618" width="4" height="4" fill="#D9D9D9"/>
<rect x="56" y="56.5618" width="4" height="4" fill="#D9D9D9"/>
<rect x="70" y="56.5618" width="4" height="4" fill="#D9D9D9"/>
<rect x="84" y="56.5618" width="4" height="4" fill="#D9D9D9"/>
<rect x="98" y="56.5618" width="4" height="4" fill="#D9D9D9"/>
<rect x="112" y="56.5618" width="4" height="4" fill="#D9D9D9"/>
<rect x="126" y="56.5618" width="4" height="4" fill="#D9D9D9"/>
<rect x="140" y="56.5618" width="4" height="4" fill="#D9D9D9"/>
<rect x="154" y="56.5618" width="4" height="4" fill="#D9D9D9"/>
<rect x="168" y="56.5618" width="4" height="4" fill="#D9D9D9"/>
<rect x="182" y="56.5618" width="4" height="4" fill="#D9D9D9"/>
<rect x="196" y="56.5618" width="4" height="4" fill="#D9D9D9"/>
<rect x="210" y="56.5618" width="4" height="4" fill="#D9D9D9"/>
<rect x="224" y="56.5618" width="4" height="4" fill="#D9D9D9"/>
<rect x="238" y="56.5618" width="4" height="4" fill="#D9D9D9"/>
<rect y="70.5618" width="4" height="4" fill="#D9D9D9"/>
<rect x="14" y="70.5618" width="4" height="4" fill="#D9D9D9"/>
<rect x="28" y="70.5618" width="4" height="4" fill="#D9D9D9"/>
<rect x="42" y="70.5618" width="4" height="4" fill="#D9D9D9"/>
<rect x="56" y="70.5618" width="4" height="4" fill="#D9D9D9"/>
<rect x="70" y="70.5618" width="4" height="4" fill="#D9D9D9"/>
<rect x="84" y="70.5618" width="4" height="4" fill="#D9D9D9"/>
<rect x="98" y="70.5618" width="4" height="4" fill="#D9D9D9"/>
<rect x="112" y="70.5618" width="4" height="4" fill="#D9D9D9"/>
<rect x="126" y="70.5618" width="4" height="4" fill="#D9D9D9"/>
<rect x="140" y="70.5618" width="4" height="4" fill="#D9D9D9"/>
<rect x="154" y="70.5618" width="4" height="4" fill="#D9D9D9"/>
<rect x="168" y="70.5618" width="4" height="4" fill="#D9D9D9"/>
<rect x="182" y="70.5618" width="4" height="4" fill="#D9D9D9"/>
<rect x="196" y="70.5618" width="4" height="4" fill="#D9D9D9"/>
<rect x="210" y="70.5618" width="4" height="4" fill="#D9D9D9"/>
<rect x="224" y="70.5618" width="4" height="4" fill="#D9D9D9"/>
<rect x="238" y="70.5618" width="4" height="4" fill="#D9D9D9"/>
<rect y="84.5618" width="4" height="4" fill="#D9D9D9"/>
<rect x="14" y="84.5618" width="4" height="4" fill="#D9D9D9"/>
<rect x="28" y="84.5618" width="4" height="4" fill="#D9D9D9"/>
<rect x="42" y="84.5618" width="4" height="4" fill="#D9D9D9"/>
<rect x="56" y="84.5618" width="4" height="4" fill="#D9D9D9"/>
<rect x="70" y="84.5618" width="4" height="4" fill="#D9D9D9"/>
<rect x="84" y="84.5618" width="4" height="4" fill="#D9D9D9"/>
<rect x="98" y="84.5618" width="4" height="4" fill="#D9D9D9"/>
<rect x="112" y="84.5618" width="4" height="4" fill="#D9D9D9"/>
<rect x="126" y="84.5618" width="4" height="4" fill="#D9D9D9"/>
<rect x="140" y="84.5618" width="4" height="4" fill="#D9D9D9"/>
<rect x="154" y="84.5618" width="4" height="4" fill="#D9D9D9"/>
<rect x="168" y="84.5618" width="4" height="4" fill="#D9D9D9"/>
<rect x="182" y="84.5618" width="4" height="4" fill="#D9D9D9"/>
<rect x="196" y="84.5618" width="4" height="4" fill="#D9D9D9"/>
<rect x="210" y="84.5618" width="4" height="4" fill="#D9D9D9"/>
<rect x="224" y="84.5618" width="4" height="4" fill="#D9D9D9"/>
<rect x="238" y="84.5618" width="4" height="4" fill="#D9D9D9"/>
<rect y="98.5618" width="4" height="4" fill="#D9D9D9"/>
<rect x="14" y="98.5618" width="4" height="4" fill="#D9D9D9"/>
<rect x="28" y="98.5618" width="4" height="4" fill="#D9D9D9"/>
<rect x="42" y="98.5618" width="4" height="4" fill="#D9D9D9"/>
<rect x="56" y="98.5618" width="4" height="4" fill="#D9D9D9"/>
<rect x="70" y="98.5618" width="4" height="4" fill="#D9D9D9"/>
<rect x="84" y="98.5618" width="4" height="4" fill="#D9D9D9"/>
<rect x="98" y="98.5618" width="4" height="4" fill="#D9D9D9"/>
<rect x="112" y="98.5618" width="4" height="4" fill="#D9D9D9"/>
<rect x="126" y="98.5618" width="4" height="4" fill="#D9D9D9"/>
<rect x="140" y="98.5618" width="4" height="4" fill="#D9D9D9"/>
<rect x="154" y="98.5618" width="4" height="4" fill="#D9D9D9"/>
<rect x="168" y="98.5618" width="4" height="4" fill="#D9D9D9"/>
<rect x="182" y="98.5618" width="4" height="4" fill="#D9D9D9"/>
<rect x="196" y="98.5618" width="4" height="4" fill="#D9D9D9"/>
<rect x="210" y="98.5618" width="4" height="4" fill="#D9D9D9"/>
<rect x="224" y="98.5618" width="4" height="4" fill="#D9D9D9"/>
<rect x="238" y="98.5618" width="4" height="4" fill="#D9D9D9"/>
<rect y="112.562" width="4" height="4" fill="#D9D9D9"/>
<rect x="14" y="112.562" width="4" height="4" fill="#D9D9D9"/>
<rect x="28" y="112.562" width="4" height="4" fill="#D9D9D9"/>
<rect x="42" y="112.562" width="4" height="4" fill="#D9D9D9"/>
<rect x="56" y="112.562" width="4" height="4" fill="#D9D9D9"/>
<rect x="70" y="112.562" width="4" height="4" fill="#D9D9D9"/>
<rect x="84" y="112.562" width="4" height="4" fill="#D9D9D9"/>
<rect x="98" y="112.562" width="4" height="4" fill="#D9D9D9"/>
<rect x="112" y="112.562" width="4" height="4" fill="#D9D9D9"/>
<rect x="126" y="112.562" width="4" height="4" fill="#D9D9D9"/>
<rect x="140" y="112.562" width="4" height="4" fill="#D9D9D9"/>
<rect x="154" y="112.562" width="4" height="4" fill="#D9D9D9"/>
<rect x="168" y="112.562" width="4" height="4" fill="#D9D9D9"/>
<rect x="182" y="112.562" width="4" height="4" fill="#D9D9D9"/>
<rect x="196" y="112.562" width="4" height="4" fill="#D9D9D9"/>
<rect x="210" y="112.562" width="4" height="4" fill="#D9D9D9"/>
<rect x="224" y="112.562" width="4" height="4" fill="#D9D9D9"/>
<rect x="238" y="112.562" width="4" height="4" fill="#D9D9D9"/>
<rect y="126.562" width="4" height="4" fill="#D9D9D9"/>
<rect x="14" y="126.562" width="4" height="4" fill="#D9D9D9"/>
<rect x="28" y="126.562" width="4" height="4" fill="#D9D9D9"/>
<rect x="42" y="126.562" width="4" height="4" fill="#D9D9D9"/>
<rect x="56" y="126.562" width="4" height="4" fill="#D9D9D9"/>
<rect x="70" y="126.562" width="4" height="4" fill="#D9D9D9"/>
<rect x="84" y="126.562" width="4" height="4" fill="#D9D9D9"/>
<rect x="98" y="126.562" width="4" height="4" fill="#D9D9D9"/>
<rect x="112" y="126.562" width="4" height="4" fill="#D9D9D9"/>
<rect x="126" y="126.562" width="4" height="4" fill="#D9D9D9"/>
<rect x="140" y="126.562" width="4" height="4" fill="#D9D9D9"/>
<rect x="154" y="126.562" width="4" height="4" fill="#D9D9D9"/>
<rect x="168" y="126.562" width="4" height="4" fill="#D9D9D9"/>
<rect x="182" y="126.562" width="4" height="4" fill="#D9D9D9"/>
<rect x="196" y="126.562" width="4" height="4" fill="#D9D9D9"/>
<rect x="210" y="126.562" width="4" height="4" fill="#D9D9D9"/>
<rect x="224" y="126.562" width="4" height="4" fill="#D9D9D9"/>
<rect x="238" y="126.562" width="4" height="4" fill="#D9D9D9"/>
<rect y="140.562" width="4" height="4" fill="#D9D9D9"/>
<rect x="14" y="140.562" width="4" height="4" fill="#D9D9D9"/>
<rect x="28" y="140.562" width="4" height="4" fill="#D9D9D9"/>
<rect x="42" y="140.562" width="4" height="4" fill="#D9D9D9"/>
<rect x="56" y="140.562" width="4" height="4" fill="#D9D9D9"/>
<rect x="70" y="140.562" width="4" height="4" fill="#D9D9D9"/>
<rect x="84" y="140.562" width="4" height="4" fill="#D9D9D9"/>
<rect x="98" y="140.562" width="4" height="4" fill="#D9D9D9"/>
<rect x="112" y="140.562" width="4" height="4" fill="#D9D9D9"/>
<rect x="126" y="140.562" width="4" height="4" fill="#D9D9D9"/>
<rect x="140" y="140.562" width="4" height="4" fill="#D9D9D9"/>
<rect x="154" y="140.562" width="4" height="4" fill="#D9D9D9"/>
<rect x="168" y="140.562" width="4" height="4" fill="#D9D9D9"/>
<rect x="182" y="140.562" width="4" height="4" fill="#D9D9D9"/>
<rect x="196" y="140.562" width="4" height="4" fill="#D9D9D9"/>
<rect x="210" y="140.562" width="4" height="4" fill="#D9D9D9"/>
<rect x="224" y="140.562" width="4" height="4" fill="#D9D9D9"/>
<rect x="238" y="140.562" width="4" height="4" fill="#D9D9D9"/>
<rect y="154.562" width="4" height="4" fill="#D9D9D9"/>
<rect x="14" y="154.562" width="4" height="4" fill="#D9D9D9"/>
<rect x="28" y="154.562" width="4" height="4" fill="#D9D9D9"/>
<rect x="42" y="154.562" width="4" height="4" fill="#D9D9D9"/>
<rect x="56" y="154.562" width="4" height="4" fill="#D9D9D9"/>
<rect x="70" y="154.562" width="4" height="4" fill="#D9D9D9"/>
<rect x="84" y="154.562" width="4" height="4" fill="#D9D9D9"/>
<rect x="98" y="154.562" width="4" height="4" fill="#D9D9D9"/>
<rect x="112" y="154.562" width="4" height="4" fill="#D9D9D9"/>
<rect x="126" y="154.562" width="4" height="4" fill="#D9D9D9"/>
<rect x="140" y="154.562" width="4" height="4" fill="#D9D9D9"/>
<rect x="154" y="154.562" width="4" height="4" fill="#D9D9D9"/>
<rect x="168" y="154.562" width="4" height="4" fill="#D9D9D9"/>
<rect x="182" y="154.562" width="4" height="4" fill="#D9D9D9"/>
<rect x="196" y="154.562" width="4" height="4" fill="#D9D9D9"/>
<rect x="210" y="154.562" width="4" height="4" fill="#D9D9D9"/>
<rect x="224" y="154.562" width="4" height="4" fill="#D9D9D9"/>
<rect x="238" y="154.562" width="4" height="4" fill="#D9D9D9"/>
<rect y="168.562" width="4" height="4" fill="#D9D9D9"/>
<rect x="14" y="168.562" width="4" height="4" fill="#D9D9D9"/>
<rect x="28" y="168.562" width="4" height="4" fill="#D9D9D9"/>
<rect x="42" y="168.562" width="4" height="4" fill="#D9D9D9"/>
<rect x="56" y="168.562" width="4" height="4" fill="#D9D9D9"/>
<rect x="70" y="168.562" width="4" height="4" fill="#D9D9D9"/>
<rect x="84" y="168.562" width="4" height="4" fill="#D9D9D9"/>
<rect x="98" y="168.562" width="4" height="4" fill="#D9D9D9"/>
<rect x="112" y="168.562" width="4" height="4" fill="#D9D9D9"/>
<rect x="126" y="168.562" width="4" height="4" fill="#D9D9D9"/>
<rect x="140" y="168.562" width="4" height="4" fill="#D9D9D9"/>
<rect x="154" y="168.562" width="4" height="4" fill="#D9D9D9"/>
<rect x="168" y="168.562" width="4" height="4" fill="#D9D9D9"/>
<rect x="182" y="168.562" width="4" height="4" fill="#D9D9D9"/>
<rect x="196" y="168.562" width="4" height="4" fill="#D9D9D9"/>
<rect x="210" y="168.562" width="4" height="4" fill="#D9D9D9"/>
<rect x="224" y="168.562" width="4" height="4" fill="#D9D9D9"/>
<rect x="238" y="168.562" width="4" height="4" fill="#D9D9D9"/>
<rect y="182.562" width="4" height="4" fill="#D9D9D9"/>
<rect x="14" y="182.562" width="4" height="4" fill="#D9D9D9"/>
<rect x="28" y="182.562" width="4" height="4" fill="#D9D9D9"/>
<rect x="42" y="182.562" width="4" height="4" fill="#D9D9D9"/>
<rect x="56" y="182.562" width="4" height="4" fill="#D9D9D9"/>
<rect x="70" y="182.562" width="4" height="4" fill="#D9D9D9"/>
<rect x="84" y="182.562" width="4" height="4" fill="#D9D9D9"/>
<rect x="98" y="182.562" width="4" height="4" fill="#D9D9D9"/>
<rect x="112" y="182.562" width="4" height="4" fill="#D9D9D9"/>
<rect x="126" y="182.562" width="4" height="4" fill="#D9D9D9"/>
<rect x="140" y="182.562" width="4" height="4" fill="#D9D9D9"/>
<rect x="154" y="182.562" width="4" height="4" fill="#D9D9D9"/>
<rect x="168" y="182.562" width="4" height="4" fill="#D9D9D9"/>
<rect x="182" y="182.562" width="4" height="4" fill="#D9D9D9"/>
<rect x="196" y="182.562" width="4" height="4" fill="#D9D9D9"/>
<rect x="210" y="182.562" width="4" height="4" fill="#D9D9D9"/>
<rect x="224" y="182.562" width="4" height="4" fill="#D9D9D9"/>
<rect x="238" y="182.562" width="4" height="4" fill="#D9D9D9"/>
<rect y="196.562" width="4" height="4" fill="#D9D9D9"/>
<rect x="14" y="196.562" width="4" height="4" fill="#D9D9D9"/>
<rect x="28" y="196.562" width="4" height="4" fill="#D9D9D9"/>
<rect x="42" y="196.562" width="4" height="4" fill="#D9D9D9"/>
<rect x="56" y="196.562" width="4" height="4" fill="#D9D9D9"/>
<rect x="70" y="196.562" width="4" height="4" fill="#D9D9D9"/>
<rect x="84" y="196.562" width="4" height="4" fill="#D9D9D9"/>
<rect x="98" y="196.562" width="4" height="4" fill="#D9D9D9"/>
<rect x="112" y="196.562" width="4" height="4" fill="#D9D9D9"/>
<rect x="126" y="196.562" width="4" height="4" fill="#D9D9D9"/>
<rect x="140" y="196.562" width="4" height="4" fill="#D9D9D9"/>
<rect x="154" y="196.562" width="4" height="4" fill="#D9D9D9"/>
<rect x="168" y="196.562" width="4" height="4" fill="#D9D9D9"/>
<rect x="182" y="196.562" width="4" height="4" fill="#D9D9D9"/>
<rect x="196" y="196.562" width="4" height="4" fill="#D9D9D9"/>
<rect x="210" y="196.562" width="4" height="4" fill="#D9D9D9"/>
<rect x="224" y="196.562" width="4" height="4" fill="#D9D9D9"/>
<rect x="238" y="196.562" width="4" height="4" fill="#D9D9D9"/>
<rect y="210.562" width="4" height="4" fill="#D9D9D9"/>
<rect x="14" y="210.562" width="4" height="4" fill="#D9D9D9"/>
<rect x="28" y="210.562" width="4" height="4" fill="#D9D9D9"/>
<rect x="42" y="210.562" width="4" height="4" fill="#D9D9D9"/>
<rect x="56" y="210.562" width="4" height="4" fill="#D9D9D9"/>
<rect x="70" y="210.562" width="4" height="4" fill="#D9D9D9"/>
<rect x="84" y="210.562" width="4" height="4" fill="#D9D9D9"/>
<rect x="98" y="210.562" width="4" height="4" fill="#D9D9D9"/>
<rect x="112" y="210.562" width="4" height="4" fill="#D9D9D9"/>
<rect x="126" y="210.562" width="4" height="4" fill="#D9D9D9"/>
<rect x="140" y="210.562" width="4" height="4" fill="#D9D9D9"/>
<rect x="154" y="210.562" width="4" height="4" fill="#D9D9D9"/>
<rect x="168" y="210.562" width="4" height="4" fill="#D9D9D9"/>
<rect x="182" y="210.562" width="4" height="4" fill="#D9D9D9"/>
<rect x="196" y="210.562" width="4" height="4" fill="#D9D9D9"/>
<rect x="210" y="210.562" width="4" height="4" fill="#D9D9D9"/>
<rect x="224" y="210.562" width="4" height="4" fill="#D9D9D9"/>
<rect x="238" y="210.562" width="4" height="4" fill="#D9D9D9"/>
<rect y="224.562" width="4" height="4" fill="#D9D9D9"/>
<rect x="14" y="224.562" width="4" height="4" fill="#D9D9D9"/>
<rect x="28" y="224.562" width="4" height="4" fill="#D9D9D9"/>
<rect x="42" y="224.562" width="4" height="4" fill="#D9D9D9"/>
<rect x="56" y="224.562" width="4" height="4" fill="#D9D9D9"/>
<rect x="70" y="224.562" width="4" height="4" fill="#D9D9D9"/>
<rect x="84" y="224.562" width="4" height="4" fill="#D9D9D9"/>
<rect x="98" y="224.562" width="4" height="4" fill="#D9D9D9"/>
<rect x="112" y="224.562" width="4" height="4" fill="#D9D9D9"/>
<rect x="126" y="224.562" width="4" height="4" fill="#D9D9D9"/>
<rect x="140" y="224.562" width="4" height="4" fill="#D9D9D9"/>
<rect x="154" y="224.562" width="4" height="4" fill="#D9D9D9"/>
<rect x="168" y="224.562" width="4" height="4" fill="#D9D9D9"/>
<rect x="182" y="224.562" width="4" height="4" fill="#D9D9D9"/>
<rect x="196" y="224.562" width="4" height="4" fill="#D9D9D9"/>
<rect x="210" y="224.562" width="4" height="4" fill="#D9D9D9"/>
<rect x="224" y="224.562" width="4" height="4" fill="#D9D9D9"/>
<rect x="238" y="224.562" width="4" height="4" fill="#D9D9D9"/>
<rect y="238.562" width="4" height="4" fill="#D9D9D9"/>
<rect x="14" y="238.562" width="4" height="4" fill="#D9D9D9"/>
<rect x="28" y="238.562" width="4" height="4" fill="#D9D9D9"/>
<rect x="42" y="238.562" width="4" height="4" fill="#D9D9D9"/>
<rect x="56" y="238.562" width="4" height="4" fill="#D9D9D9"/>
<rect x="70" y="238.562" width="4" height="4" fill="#D9D9D9"/>
<rect x="84" y="238.562" width="4" height="4" fill="#D9D9D9"/>
<rect x="98" y="238.562" width="4" height="4" fill="#D9D9D9"/>
<rect x="112" y="238.562" width="4" height="4" fill="#D9D9D9"/>
<rect x="126" y="238.562" width="4" height="4" fill="#D9D9D9"/>
<rect x="140" y="238.562" width="4" height="4" fill="#D9D9D9"/>
<rect x="154" y="238.562" width="4" height="4" fill="#D9D9D9"/>
<rect x="168" y="238.562" width="4" height="4" fill="#D9D9D9"/>
<rect x="182" y="238.562" width="4" height="4" fill="#D9D9D9"/>
<rect x="196" y="238.562" width="4" height="4" fill="#D9D9D9"/>
<rect x="210" y="238.562" width="4" height="4" fill="#D9D9D9"/>
<rect x="224" y="238.562" width="4" height="4" fill="#D9D9D9"/>
<rect x="238" y="238.562" width="4" height="4" fill="#D9D9D9"/>
<rect y="252.562" width="4" height="4" fill="#D9D9D9"/>
<rect x="14" y="252.562" width="4" height="4" fill="#D9D9D9"/>
<rect x="28" y="252.562" width="4" height="4" fill="#D9D9D9"/>
<rect x="42" y="252.562" width="4" height="4" fill="#D9D9D9"/>
<rect x="56" y="252.562" width="4" height="4" fill="#D9D9D9"/>
<rect x="70" y="252.562" width="4" height="4" fill="#D9D9D9"/>
<rect x="84" y="252.562" width="4" height="4" fill="#D9D9D9"/>
<rect x="98" y="252.562" width="4" height="4" fill="#D9D9D9"/>
<rect x="112" y="252.562" width="4" height="4" fill="#D9D9D9"/>
<rect x="126" y="252.562" width="4" height="4" fill="#D9D9D9"/>
<rect x="140" y="252.562" width="4" height="4" fill="#D9D9D9"/>
<rect x="154" y="252.562" width="4" height="4" fill="#D9D9D9"/>
<rect x="168" y="252.562" width="4" height="4" fill="#D9D9D9"/>
<rect x="182" y="252.562" width="4" height="4" fill="#D9D9D9"/>
<rect x="196" y="252.562" width="4" height="4" fill="#D9D9D9"/>
<rect x="210" y="252.562" width="4" height="4" fill="#D9D9D9"/>
<rect x="224" y="252.562" width="4" height="4" fill="#D9D9D9"/>
<rect x="238" y="252.562" width="4" height="4" fill="#D9D9D9"/>
<rect y="266.562" width="4" height="4" fill="#D9D9D9"/>
<rect x="14" y="266.562" width="4" height="4" fill="#D9D9D9"/>
<rect x="28" y="266.562" width="4" height="4" fill="#D9D9D9"/>
<rect x="42" y="266.562" width="4" height="4" fill="#D9D9D9"/>
<rect x="56" y="266.562" width="4" height="4" fill="#D9D9D9"/>
<rect x="70" y="266.562" width="4" height="4" fill="#D9D9D9"/>
<rect x="84" y="266.562" width="4" height="4" fill="#D9D9D9"/>
<rect x="98" y="266.562" width="4" height="4" fill="#D9D9D9"/>
<rect x="112" y="266.562" width="4" height="4" fill="#D9D9D9"/>
<rect x="126" y="266.562" width="4" height="4" fill="#D9D9D9"/>
<rect x="140" y="266.562" width="4" height="4" fill="#D9D9D9"/>
<rect x="154" y="266.562" width="4" height="4" fill="#D9D9D9"/>
<rect x="168" y="266.562" width="4" height="4" fill="#D9D9D9"/>
<rect x="182" y="266.562" width="4" height="4" fill="#D9D9D9"/>
<rect x="196" y="266.562" width="4" height="4" fill="#D9D9D9"/>
<rect x="210" y="266.562" width="4" height="4" fill="#D9D9D9"/>
<rect x="224" y="266.562" width="4" height="4" fill="#D9D9D9"/>
<rect x="238" y="266.562" width="4" height="4" fill="#D9D9D9"/>
</svg>
