<svg width="244" height="274" viewBox="0 0 244 274" fill="none" xmlns="http://www.w3.org/2000/svg">
<rect y="0.561768" width="4" height="4" fill="#D9D9D9"/>
<rect x="14" y="0.561768" width="4" height="4" fill="#D9D9D9"/>
<rect x="28" y="0.561768" width="4" height="4" fill="#D9D9D9"/>
<rect x="42" y="0.561768" width="4" height="4" fill="#D9D9D9"/>
<rect x="56" y="0.561768" width="4" height="4" fill="#D9D9D9"/>
<rect x="70" y="0.561768" width="4" height="4" fill="#D9D9D9"/>
<rect x="84" y="0.561768" width="4" height="4" fill="#D9D9D9"/>
<rect x="98" y="0.561768" width="4" height="4" fill="#D9D9D9"/>
<rect x="112" y="0.561768" width="4" height="4" fill="#D9D9D9"/>
<rect x="126" y="0.561768" width="4" height="4" fill="#D9D9D9"/>
<rect x="140" y="0.561768" width="4" height="4" fill="#D9D9D9"/>
<rect x="154" y="0.561768" width="4" height="4" fill="#D9D9D9"/>
<rect x="168" y="0.561768" width="4" height="4" fill="#D9D9D9"/>
<rect x="182" y="0.561768" width="4" height="4" fill="#D9D9D9"/>
<rect x="196" y="0.561768" width="4" height="4" fill="#D9D9D9"/>
<rect x="210" y="0.561768" width="4" height="4" fill="#D9D9D9"/>
<rect x="224" y="0.561768" width="4" height="4" fill="#D9D9D9"/>
<rect x="238" y="0.561768" width="4" height="4" fill="#D9D9D9"/>
<rect y="14.5618" width="4" height="4" fill="#D9D9D9"/>
<rect x="14" y="14.5618" width="4" height="4" fill="#D9D9D9"/>
<rect x="28" y="14.5618" width="4" height="4" fill="#D9D9D9"/>
<rect x="42" y="14.5618" width="4" height="4" fill="#D9D9D9"/>
<rect x="56" y="14.5618" width="4" height="4" fill="#D9D9D9"/>
<rect x="70" y="14.5618" width="4" height="4" fill="#D9D9D9"/>
<rect x="84" y="14.5618" width="4" height="4" fill="#D9D9D9"/>
<rect x="98" y="14.5618" width="4" height="4" fill="#D9D9D9"/>
<rect x="112" y="14.5618" width="4" height="4" fill="#D9D9D9"/>
<rect x="126" y="14.5618" width="4" height="4" fill="#D9D9D9"/>
<rect x="140" y="14.5618" width="4" height="4" fill="#D9D9D9"/>
<rect x="154" y="14.5618" width="4" height="4" fill="#D9D9D9"/>
<rect x="168" y="14.5618" width="4" height="4" fill="#D9D9D9"/>
<rect x="182" y="14.5618" width="4" height="4" fill="#D9D9D9"/>
<rect x="196" y="14.5618" width="4" height="4" fill="#D9D9D9"/>
<rect x="210" y="14.5618" width="4" height="4" fill="#D9D9D9"/>
<rect x="224" y="14.5618" width="4" height="4" fill="#D9D9D9"/>
<rect x="238" y="14.5618" width="4" height="4" fill="#D9D9D9"/>
<rect y="28.5618" width="4" height="4" fill="#D9D9D9"/>
<rect x="14" y="28.5618" width="4" height="4" fill="#D9D9D9"/>
<rect x="28" y="28.5618" width="4" height="4" fill="#D9D9D9"/>
<rect x="42" y="28.5618" width="4" height="4" fill="#D9D9D9"/>
<rect x="56" y="28.5618" width="4" height="4" fill="#D9D9D9"/>
<rect x="70" y="28.5618" width="4" height="4" fill="#D9D9D9"/>
<rect x="84" y="28.5618" width="4" height="4" fill="#D9D9D9"/>
<rect x="98" y="28.5618" width="4" height="4" fill="#D9D9D9"/>
<rect x="112" y="28.5618" width="4" height="4" fill="#D9D9D9"/>
<rect x="126" y="28.5618" width="4" height="4" fill="#D9D9D9"/>
<rect x="140" y="28.5618" width="4" height="4" fill="#D9D9D9"/>
<rect x="154" y="28.5618" width="4" height="4" fill="#D9D9D9"/>
<rect x="168" y="28.5618" width="4" height="4" fill="#D9D9D9"/>
<rect x="182" y="28.5618" width="4" height="4" fill="#D9D9D9"/>
<rect x="196" y="28.5618" width="4" height="4" fill="#D9D9D9"/>
<rect x="210" y="28.5618" width="4" height="4" fill="#D9D9D9"/>
<rect x="224" y="28.5618" width="4" height="4" fill="#D9D9D9"/>
<rect x="238" y="28.5618" width="4" height="4" fill="#D9D9D9"/>
<rect y="42.5618" width="4" height="4" fill="#D9D9D9"/>
<rect x="14" y="42.5618" width="4" height="4" fill="#D9D9D9"/>
<rect x="28" y="42.5618" width="4" height="4" fill="#D9D9D9"/>
<rect x="42" y="42.5618" width="4" height="4" fill="#D9D9D9"/>
<rect x="56" y="42.5618" width="4" height="4" fill="#D9D9D9"/>
<rect x="70" y="42.5618" width="4" height="4" fill="#D9D9D9"/>
<rect x="84" y="42.5618" width="4" height="4" fill="#D9D9D9"/>
<rect x="98" y="42.5618" width="4" height="4" fill="#D9D9D9"/>
<rect x="112" y="42.5618" width="4" height="4" fill="#D9D9D9"/>
<rect x="126" y="42.5618" width="4" height="4" fill="#D9D9D9"/>
<rect x="140" y="42.5618" width="4" height="4" fill="#D9D9D9"/>
<rect x="154" y="42.5618" width="4" height="4" fill="#D9D9D9"/>
<rect x="168" y="42.5618" width="4" height="4" fill="#D9D9D9"/>
<rect x="182" y="42.5618" width="4" height="4" fill="#D9D9D9"/>
<rect x="196" y="42.5618" width="4" height="4" fill="#D9D9D9"/>
<rect x="210" y="42.5618" width="4" height="4" fill="#D9D9D9"/>
<rect x="224" y="42.5618" width="4" height="4" fill="#D9D9D9"/>
<rect x="238" y="42.5618" width="4" height="4" fill="#D9D9D9"/>
<rect y="56.5618" width="4" height="4" fill="#D9D9D9"/>
<rect x="14" y="56.5618" width="4" height="4" fill="#D9D9D9"/>
<rect x="28" y="56.5618" width="4" height="4" fill="#D9D9D9"/>
<rect x="42" y="56.5618" width="4" height="4" fill="#D9D9D9"/>
<rect x="56" y="56.5618" width="4" height="4" fill="#D9D9D9"/>
<rect x="70" y="56.5618" width="4" height="4" fill="#D9D9D9"/>
<rect x="84" y="56.5618" width="4" height="4" fill="#D9D9D9"/>
<rect x="98" y="56.5618" width="4" height="4" fill="#D9D9D9"/>
<rect x="112" y="56.5618" width="4" height="4" fill="#D9D9D9"/>
<rect x="126" y="56.5618" width="4" height="4" fill="#D9D9D9"/>
<rect x="140" y="56.5618" width="4" height="4" fill="#D9D9D9"/>
<rect x="154" y="56.5618" width="4" height="4" fill="#D9D9D9"/>
<rect x="168" y="56.5618" width="4" height="4" fill="#D9D9D9"/>
<rect x="182" y="56.5618" width="4" height="4" fill="#D9D9D9"/>
<rect x="196" y="56.5618" width="4" height="4" fill="#D9D9D9"/>
<rect x="210" y="56.5618" width="4" height="4" fill="#D9D9D9"/>
<rect x="224" y="56.5618" width="4" height="4" fill="#D9D9D9"/>
<rect x="238" y="56.5618" width="4" height="4" fill="#D9D9D9"/>
<rect y="70.5618" width="4" height="4" fill="#D9D9D9"/>
<rect x="14" y="70.5618" width="4" height="4" fill="#D9D9D9"/>
<rect x="28" y="70.5618" width="4" height="4" fill="#D9D9D9"/>
<rect x="42" y="70.5618" width="4" height="4" fill="#D9D9D9"/>
<rect x="56" y="70.5618" width="4" height="4" fill="#D9D9D9"/>
<rect x="70" y="70.5618" width="4" height="4" fill="#D9D9D9"/>
<rect x="84" y="70.5618" width="4" height="4" fill="#D9D9D9"/>
<rect x="98" y="70.5618" width="4" height="4" fill="#D9D9D9"/>
<rect x="112" y="70.5618" width="4" height="4" fill="#D9D9D9"/>
<rect x="126" y="70.5618" width="4" height="4" fill="#D9D9D9"/>
<rect x="140" y="70.5618" width="4" height="4" fill="#D9D9D9"/>
<rect x="154" y="70.5618" width="4" height="4" fill="#D9D9D9"/>
<rect x="168" y="70.5618" width="4" height="4" fill="#D9D9D9"/>
<rect x="182" y="70.5618" width="4" height="4" fill="#D9D9D9"/>
<rect x="196" y="70.5618" width="4" height="4" fill="#D9D9D9"/>
<rect x="210" y="70.5618" width="4" height="4" fill="#D9D9D9"/>
<rect x="224" y="70.5618" width="4" height="4" fill="#D9D9D9"/>
<rect x="238" y="70.5618" width="4" height="4" fill="#D9D9D9"/>
<rect y="84.5618" width="4" height="4" fill="#D9D9D9"/>
<rect x="14" y="84.5618" width="4" height="4" fill="#D9D9D9"/>
<rect x="28" y="84.5618" width="4" height="4" fill="#D9D9D9"/>
<rect x="42" y="84.5618" width="4" height="4" fill="#D9D9D9"/>
<rect x="56" y="84.5618" width="4" height="4" fill="#D9D9D9"/>
<rect x="70" y="84.5618" width="4" height="4" fill="#D9D9D9"/>
<rect x="84" y="84.5618" width="4" height="4" fill="#D9D9D9"/>
<rect x="98" y="84.5618" width="4" height="4" fill="#D9D9D9"/>
<rect x="112" y="84.5618" width="4" height="4" fill="#D9D9D9"/>
<rect x="126" y="84.5618" width="4" height="4" fill="#D9D9D9"/>
<rect x="140" y="84.5618" width="4" height="4" fill="#D9D9D9"/>
<rect x="154" y="84.5618" width="4" height="4" fill="#D9D9D9"/>
<rect x="168" y="84.5618" width="4" height="4" fill="#D9D9D9"/>
<rect x="182" y="84.5618" width="4" height="4" fill="#D9D9D9"/>
<rect x="196" y="84.5618" width="4" height="4" fill="#D9D9D9"/>
<rect x="210" y="84.5618" width="4" height="4" fill="#D9D9D9"/>
<rect x="224" y="84.5618" width="4" height="4" fill="#D9D9D9"/>
<rect x="238" y="84.5618" width="4" height="4" fill="#D9D9D9"/>
<rect y="98.5618" width="4" height="4" fill="#D9D9D9"/>
<rect x="14" y="98.5618" width="4" height="4" fill="#D9D9D9"/>
<rect x="28" y="98.5618" width="4" height="4" fill="#D9D9D9"/>
<rect x="42" y="98.5618" width="4" height="4" fill="#D9D9D9"/>
<rect x="56" y="98.5618" width="4" height="4" fill="#D9D9D9"/>
<rect x="70" y="98.5618" width="4" height="4" fill="#D9D9D9"/>
<rect x="84" y="98.5618" width="4" height="4" fill="#D9D9D9"/>
<rect x="98" y="98.5618" width="4" height="4" fill="#D9D9D9"/>
<rect x="112" y="98.5618" width="4" height="4" fill="#D9D9D9"/>
<rect x="126" y="98.5618" width="4" height="4" fill="#D9D9D9"/>
<rect x="140" y="98.5618" width="4" height="4" fill="#D9D9D9"/>
<rect x="154" y="98.5618" width="4" height="4" fill="#D9D9D9"/>
<rect x="168" y="98.5618" width="4" height="4" fill="#D9D9D9"/>
<rect x="182" y="98.5618" width="4" height="4" fill="#D9D9D9"/>
<rect x="196" y="98.5618" width="4" height="4" fill="#D9D9D9"/>
<rect x="210" y="98.5618" width="4" height="4" fill="#D9D9D9"/>
<rect x="224" y="98.5618" width="4" height="4" fill="#D9D9D9"/>
<rect x="238" y="98.5618" width="4" height="4" fill="#D9D9D9"/>
<rect y="112.562" width="4" height="4" fill="#D9D9D9"/>
<rect x="14" y="112.562" width="4" height="4" fill="#D9D9D9"/>
<rect x="28" y="112.562" width="4" height="4" fill="#D9D9D9"/>
<rect x="42" y="112.562" width="4" height="4" fill="#D9D9D9"/>
<rect x="56" y="112.562" width="4" height="4" fill="#D9D9D9"/>
<rect x="70" y="112.562" width="4" height="4" fill="#D9D9D9"/>
<rect x="84" y="112.562" width="4" height="4" fill="#D9D9D9"/>
<rect x="98" y="112.562" width="4" height="4" fill="#D9D9D9"/>
<rect x="112" y="112.562" width="4" height="4" fill="#D9D9D9"/>
<rect x="126" y="112.562" width="4" height="4" fill="#D9D9D9"/>
<rect x="140" y="112.562" width="4" height="4" fill="#D9D9D9"/>
<rect x="154" y="112.562" width="4" height="4" fill="#D9D9D9"/>
<rect x="168" y="112.562" width="4" height="4" fill="#D9D9D9"/>
<rect x="182" y="112.562" width="4" height="4" fill="#D9D9D9"/>
<rect x="196" y="112.562" width="4" height="4" fill="#D9D9D9"/>
<rect x="210" y="112.562" width="4" height="4" fill="#D9D9D9"/>
<rect x="224" y="112.562" width="4" height="4" fill="#D9D9D9"/>
<rect x="238" y="112.562" width="4" height="4" fill="#D9D9D9"/>
<rect y="126.562" width="4" height="4" fill="#D9D9D9"/>
<rect x="14" y="126.562" width="4" height="4" fill="#D9D9D9"/>
<rect x="28" y="126.562" width="4" height="4" fill="#D9D9D9"/>
<rect x="42" y="126.562" width="4" height="4" fill="#D9D9D9"/>
<rect x="56" y="126.562" width="4" height="4" fill="#D9D9D9"/>
<rect x="70" y="126.562" width="4" height="4" fill="#D9D9D9"/>
<rect x="84" y="126.562" width="4" height="4" fill="#D9D9D9"/>
<rect x="98" y="126.562" width="4" height="4" fill="#D9D9D9"/>
<rect x="112" y="126.562" width="4" height="4" fill="#D9D9D9"/>
<rect x="126" y="126.562" width="4" height="4" fill="#D9D9D9"/>
<rect x="140" y="126.562" width="4" height="4" fill="#D9D9D9"/>
<rect x="154" y="126.562" width="4" height="4" fill="#D9D9D9"/>
<rect x="168" y="126.562" width="4" height="4" fill="#D9D9D9"/>
<rect x="182" y="126.562" width="4" height="4" fill="#D9D9D9"/>
<rect x="196" y="126.562" width="4" height="4" fill="#D9D9D9"/>
<rect x="210" y="126.562" width="4" height="4" fill="#D9D9D9"/>
<rect x="224" y="126.562" width="4" height="4" fill="#D9D9D9"/>
<rect x="238" y="126.562" width="4" height="4" fill="#D9D9D9"/>
<rect y="140.562" width="4" height="4" fill="#D9D9D9"/>
<rect x="14" y="140.562" width="4" height="4" fill="#D9D9D9"/>
<rect x="28" y="140.562" width="4" height="4" fill="#D9D9D9"/>
<rect x="42" y="140.562" width="4" height="4" fill="#D9D9D9"/>
<rect x="56" y="140.562" width="4" height="4" fill="#D9D9D9"/>
<rect x="70" y="140.562" width="4" height="4" fill="#D9D9D9"/>
<rect x="84" y="140.562" width="4" height="4" fill="#D9D9D9"/>
<rect x="98" y="140.562" width="4" height="4" fill="#D9D9D9"/>
<rect x="112" y="140.562" width="4" height="4" fill="#D9D9D9"/>
<rect x="126" y="140.562" width="4" height="4" fill="#D9D9D9"/>
<rect x="140" y="140.562" width="4" height="4" fill="#D9D9D9"/>
<rect x="154" y="140.562" width="4" height="4" fill="#D9D9D9"/>
<rect x="168" y="140.562" width="4" height="4" fill="#D9D9D9"/>
<rect x="182" y="140.562" width="4" height="4" fill="#D9D9D9"/>
<rect x="196" y="140.562" width="4" height="4" fill="#D9D9D9"/>
<rect x="210" y="140.562" width="4" height="4" fill="#D9D9D9"/>
<rect x="224" y="140.562" width="4" height="4" fill="#D9D9D9"/>
<rect x="238" y="140.562" width="4" height="4" fill="#D9D9D9"/>
<rect y="154.562" width="4" height="4" fill="#D9D9D9"/>
<rect x="14" y="154.562" width="4" height="4" fill="#D9D9D9"/>
<rect x="28" y="154.562" width="4" height="4" fill="#D9D9D9"/>
<rect x="42" y="154.562" width="4" height="4" fill="#D9D9D9"/>
<rect x="56" y="154.562" width="4" height="4" fill="#D9D9D9"/>
<rect x="70" y="154.562" width="4" height="4" fill="#D9D9D9"/>
<rect x="84" y="154.562" width="4" height="4" fill="#D9D9D9"/>
<rect x="98" y="154.562" width="4" height="4" fill="#D9D9D9"/>
<rect x="112" y="154.562" width="4" height="4" fill="#D9D9D9"/>
<rect x="126" y="154.562" width="4" height="4" fill="#D9D9D9"/>
<rect x="140" y="154.562" width="4" height="4" fill="#D9D9D9"/>
<rect x="154" y="154.562" width="4" height="4" fill="#D9D9D9"/>
<rect x="168" y="154.562" width="4" height="4" fill="#D9D9D9"/>
<rect x="182" y="154.562" width="4" height="4" fill="#D9D9D9"/>
<rect x="196" y="154.562" width="4" height="4" fill="#D9D9D9"/>
<rect x="210" y="154.562" width="4" height="4" fill="#D9D9D9"/>
<rect x="224" y="154.562" width="4" height="4" fill="#D9D9D9"/>
<rect x="238" y="154.562" width="4" height="4" fill="#D9D9D9"/>
<rect y="168.562" width="4" height="4" fill="#D9D9D9"/>
<rect x="14" y="168.562" width="4" height="4" fill="#D9D9D9"/>
<rect x="28" y="168.562" width="4" height="4" fill="#D9D9D9"/>
<rect x="42" y="168.562" width="4" height="4" fill="#D9D9D9"/>
<rect x="56" y="168.562" width="4" height="4" fill="#D9D9D9"/>
<rect x="70" y="168.562" width="4" height="4" fill="#D9D9D9"/>
<rect x="84" y="168.562" width="4" height="4" fill="#D9D9D9"/>
<rect x="98" y="168.562" width="4" height="4" fill="#D9D9D9"/>
<rect x="112" y="168.562" width="4" height="4" fill="#D9D9D9"/>
<rect x="126" y="168.562" width="4" height="4" fill="#D9D9D9"/>
<rect x="140" y="168.562" width="4" height="4" fill="#D9D9D9"/>
<rect x="154" y="168.562" width="4" height="4" fill="#D9D9D9"/>
<rect x="168" y="168.562" width="4" height="4" fill="#D9D9D9"/>
<rect x="182" y="168.562" width="4" height="4" fill="#D9D9D9"/>
<rect x="196" y="168.562" width="4" height="4" fill="#D9D9D9"/>
<rect x="210" y="168.562" width="4" height="4" fill="#D9D9D9"/>
<rect x="224" y="168.562" width="4" height="4" fill="#D9D9D9"/>
<rect x="238" y="168.562" width="4" height="4" fill="#D9D9D9"/>
<rect y="182.562" width="4" height="4" fill="#D9D9D9"/>
<rect x="14" y="182.562" width="4" height="4" fill="#D9D9D9"/>
<rect x="28" y="182.562" width="4" height="4" fill="#D9D9D9"/>
<rect x="42" y="182.562" width="4" height="4" fill="#D9D9D9"/>
<rect x="56" y="182.562" width="4" height="4" fill="#D9D9D9"/>
<rect x="70" y="182.562" width="4" height="4" fill="#D9D9D9"/>
<rect x="84" y="182.562" width="4" height="4" fill="#D9D9D9"/>
<rect x="98" y="182.562" width="4" height="4" fill="#D9D9D9"/>
<rect x="112" y="182.562" width="4" height="4" fill="#D9D9D9"/>
<rect x="126" y="182.562" width="4" height="4" fill="#D9D9D9"/>
<rect x="140" y="182.562" width="4" height="4" fill="#D9D9D9"/>
<rect x="154" y="182.562" width="4" height="4" fill="#D9D9D9"/>
<rect x="168" y="182.562" width="4" height="4" fill="#D9D9D9"/>
<rect x="182" y="182.562" width="4" height="4" fill="#D9D9D9"/>
<rect x="196" y="182.562" width="4" height="4" fill="#D9D9D9"/>
<rect x="210" y="182.562" width="4" height="4" fill="#D9D9D9"/>
<rect x="224" y="182.562" width="4" height="4" fill="#D9D9D9"/>
<rect x="238" y="182.562" width="4" height="4" fill="#D9D9D9"/>
<rect y="196.562" width="4" height="4" fill="#D9D9D9"/>
<rect x="14" y="196.562" width="4" height="4" fill="#D9D9D9"/>
<rect x="28" y="196.562" width="4" height="4" fill="#D9D9D9"/>
<rect x="42" y="196.562" width="4" height="4" fill="#D9D9D9"/>
<rect x="56" y="196.562" width="4" height="4" fill="#D9D9D9"/>
<rect x="70" y="196.562" width="4" height="4" fill="#D9D9D9"/>
<rect x="84" y="196.562" width="4" height="4" fill="#D9D9D9"/>
<rect x="98" y="196.562" width="4" height="4" fill="#D9D9D9"/>
<rect x="112" y="196.562" width="4" height="4" fill="#D9D9D9"/>
<rect x="126" y="196.562" width="4" height="4" fill="#D9D9D9"/>
<rect x="140" y="196.562" width="4" height="4" fill="#D9D9D9"/>
<rect x="154" y="196.562" width="4" height="4" fill="#D9D9D9"/>
<rect x="168" y="196.562" width="4" height="4" fill="#D9D9D9"/>
<rect x="182" y="196.562" width="4" height="4" fill="#D9D9D9"/>
<rect x="196" y="196.562" width="4" height="4" fill="#D9D9D9"/>
<rect x="210" y="196.562" width="4" height="4" fill="#D9D9D9"/>
<rect x="224" y="196.562" width="4" height="4" fill="#D9D9D9"/>
<rect x="238" y="196.562" width="4" height="4" fill="#D9D9D9"/>
<rect y="210.562" width="4" height="4" fill="#D9D9D9"/>
<rect x="14" y="210.562" width="4" height="4" fill="#D9D9D9"/>
<rect x="28" y="210.562" width="4" height="4" fill="#D9D9D9"/>
<rect x="42" y="210.562" width="4" height="4" fill="#D9D9D9"/>
<rect x="56" y="210.562" width="4" height="4" fill="#D9D9D9"/>
<rect x="70" y="210.562" width="4" height="4" fill="#D9D9D9"/>
<rect x="84" y="210.562" width="4" height="4" fill="#D9D9D9"/>
<rect x="98" y="210.562" width="4" height="4" fill="#D9D9D9"/>
<rect x="112" y="210.562" width="4" height="4" fill="#D9D9D9"/>
<rect x="126" y="210.562" width="4" height="4" fill="#D9D9D9"/>
<rect x="140" y="210.562" width="4" height="4" fill="#D9D9D9"/>
<rect x="154" y="210.562" width="4" height="4" fill="#D9D9D9"/>
<rect x="168" y="210.562" width="4" height="4" fill="#D9D9D9"/>
<rect x="182" y="210.562" width="4" height="4" fill="#D9D9D9"/>
<rect x="196" y="210.562" width="4" height="4" fill="#D9D9D9"/>
<rect x="210" y="210.562" width="4" height="4" fill="#D9D9D9"/>
<rect x="224" y="210.562" width="4" height="4" fill="#D9D9D9"/>
<rect x="238" y="210.562" width="4" height="4" fill="#D9D9D9"/>
<rect y="224.562" width="4" height="4" fill="#D9D9D9"/>
<rect x="14" y="224.562" width="4" height="4" fill="#D9D9D9"/>
<rect x="28" y="224.562" width="4" height="4" fill="#D9D9D9"/>
<rect x="42" y="224.562" width="4" height="4" fill="#D9D9D9"/>
<rect x="56" y="224.562" width="4" height="4" fill="#D9D9D9"/>
<rect x="70" y="224.562" width="4" height="4" fill="#D9D9D9"/>
<rect x="84" y="224.562" width="4" height="4" fill="#D9D9D9"/>
<rect x="98" y="224.562" width="4" height="4" fill="#D9D9D9"/>
<rect x="112" y="224.562" width="4" height="4" fill="#D9D9D9"/>
<rect x="126" y="224.562" width="4" height="4" fill="#D9D9D9"/>
<rect x="140" y="224.562" width="4" height="4" fill="#D9D9D9"/>
<rect x="154" y="224.562" width="4" height="4" fill="#D9D9D9"/>
<rect x="168" y="224.562" width="4" height="4" fill="#D9D9D9"/>
<rect x="182" y="224.562" width="4" height="4" fill="#D9D9D9"/>
<rect x="196" y="224.562" width="4" height="4" fill="#D9D9D9"/>
<rect x="210" y="224.562" width="4" height="4" fill="#D9D9D9"/>
<rect x="224" y="224.562" width="4" height="4" fill="#D9D9D9"/>
<rect x="238" y="224.562" width="4" height="4" fill="#D9D9D9"/>
<rect y="238.562" width="4" height="4" fill="#D9D9D9"/>
<rect x="14" y="238.562" width="4" height="4" fill="#D9D9D9"/>
<rect x="28" y="238.562" width="4" height="4" fill="#D9D9D9"/>
<rect x="42" y="238.562" width="4" height="4" fill="#D9D9D9"/>
<rect x="56" y="238.562" width="4" height="4" fill="#D9D9D9"/>
<rect x="70" y="238.562" width="4" height="4" fill="#D9D9D9"/>
<rect x="84" y="238.562" width="4" height="4" fill="#D9D9D9"/>
<rect x="98" y="238.562" width="4" height="4" fill="#D9D9D9"/>
<rect x="112" y="238.562" width="4" height="4" fill="#D9D9D9"/>
<rect x="126" y="238.562" width="4" height="4" fill="#D9D9D9"/>
<rect x="140" y="238.562" width="4" height="4" fill="#D9D9D9"/>
<rect x="154" y="238.562" width="4" height="4" fill="#D9D9D9"/>
<rect x="168" y="238.562" width="4" height="4" fill="#D9D9D9"/>
<rect x="182" y="238.562" width="4" height="4" fill="#D9D9D9"/>
<rect x="196" y="238.562" width="4" height="4" fill="#D9D9D9"/>
<rect x="210" y="238.562" width="4" height="4" fill="#D9D9D9"/>
<rect x="224" y="238.562" width="4" height="4" fill="#D9D9D9"/>
<rect x="238" y="238.562" width="4" height="4" fill="#D9D9D9"/>
<rect y="252.562" width="4" height="4" fill="#D9D9D9"/>
<rect x="14" y="252.562" width="4" height="4" fill="#D9D9D9"/>
<rect x="28" y="252.562" width="4" height="4" fill="#D9D9D9"/>
<rect x="42" y="252.562" width="4" height="4" fill="#D9D9D9"/>
<rect x="56" y="252.562" width="4" height="4" fill="#D9D9D9"/>
<rect x="70" y="252.562" width="4" height="4" fill="#D9D9D9"/>
<rect x="84" y="252.562" width="4" height="4" fill="#D9D9D9"/>
<rect x="98" y="252.562" width="4" height="4" fill="#D9D9D9"/>
<rect x="112" y="252.562" width="4" height="4" fill="#D9D9D9"/>
<rect x="126" y="252.562" width="4" height="4" fill="#D9D9D9"/>
<rect x="140" y="252.562" width="4" height="4" fill="#D9D9D9"/>
<rect x="154" y="252.562" width="4" height="4" fill="#D9D9D9"/>
<rect x="168" y="252.562" width="4" height="4" fill="#D9D9D9"/>
<rect x="182" y="252.562" width="4" height="4" fill="#D9D9D9"/>
<rect x="196" y="252.562" width="4" height="4" fill="#D9D9D9"/>
<rect x="210" y="252.562" width="4" height="4" fill="#D9D9D9"/>
<rect x="224" y="252.562" width="4" height="4" fill="#D9D9D9"/>
<rect x="238" y="252.562" width="4" height="4" fill="#D9D9D9"/>
<rect y="266.562" width="4" height="4" fill="#D9D9D9"/>
<rect x="14" y="266.562" width="4" height="4" fill="#D9D9D9"/>
<rect x="28" y="266.562" width="4" height="4" fill="#D9D9D9"/>
<rect x="42" y="266.562" width="4" height="4" fill="#D9D9D9"/>
<rect x="56" y="266.562" width="4" height="4" fill="#D9D9D9"/>
<rect x="70" y="266.562" width="4" height="4" fill="#D9D9D9"/>
<rect x="84" y="266.562" width="4" height="4" fill="#D9D9D9"/>
<rect x="98" y="266.562" width="4" height="4" fill="#D9D9D9"/>
<rect x="112" y="266.562" width="4" height="4" fill="#D9D9D9"/>
<rect x="126" y="266.562" width="4" height="4" fill="#D9D9D9"/>
<rect x="140" y="266.562" width="4" height="4" fill="#D9D9D9"/>
<rect x="154" y="266.562" width="4" height="4" fill="#D9D9D9"/>
<rect x="168" y="266.562" width="4" height="4" fill="#D9D9D9"/>
<rect x="182" y="266.562" width="4" height="4" fill="#D9D9D9"/>
<rect x="196" y="266.562" width="4" height="4" fill="#D9D9D9"/>
<rect x="210" y="266.562" width="4" height="4" fill="#D9D9D9"/>
<rect x="224" y="266.562" width="4" height="4" fill="#D9D9D9"/>
<rect x="238" y="266.562" width="4" height="4" fill="#D9D9D9"/>
<path d="M42 162.562C42 144.336 56.7746 129.562 75 129.562H233V263.562H42V162.562Z" fill="#28A271"/>
<path d="M53 174.562C53 156.336 67.7746 141.562 86 141.562H244V273.562H53V174.562Z" fill="#DEE7E4"/>
<path d="M156.429 202.329C156.047 201.592 155.514 201.032 154.836 200.657C154.158 200.282 153.368 200.091 152.473 200.091C151.492 200.091 150.623 200.308 149.859 200.749C149.096 201.19 148.497 201.815 148.062 202.618C147.628 203.428 147.411 204.363 147.411 205.429C147.411 206.495 147.628 207.43 148.062 208.246C148.497 209.063 149.096 209.688 149.859 210.129C150.623 210.57 151.498 210.787 152.473 210.787C153.789 210.787 154.862 210.419 155.685 209.681C156.508 208.944 157.008 207.944 157.192 206.68H151.643V204.744H159.792V206.64C159.634 207.792 159.226 208.845 158.568 209.813C157.91 210.781 157.047 211.544 155.994 212.123C154.934 212.696 153.763 212.986 152.473 212.986C151.084 212.986 149.813 212.663 148.668 212.018C147.523 211.373 146.608 210.478 145.936 209.326C145.265 208.174 144.929 206.877 144.929 205.436C144.929 203.994 145.265 202.691 145.936 201.545C146.608 200.394 147.523 199.498 148.681 198.853C149.84 198.208 151.103 197.886 152.479 197.886C154.052 197.886 155.454 198.274 156.679 199.044C157.903 199.814 158.798 200.914 159.351 202.329H156.435H156.429Z" fill="#293E33"/>
<path d="M161.452 199.136C161.156 198.84 161.005 198.471 161.005 198.03C161.005 197.589 161.156 197.221 161.452 196.925C161.748 196.628 162.117 196.477 162.558 196.477C162.999 196.477 163.348 196.628 163.644 196.925C163.94 197.221 164.092 197.589 164.092 198.03C164.092 198.471 163.94 198.84 163.644 199.136C163.348 199.432 162.986 199.584 162.558 199.584C162.13 199.584 161.748 199.432 161.452 199.136ZM163.75 201.137V212.861H161.327V201.137H163.75Z" fill="#293E33"/>
<path d="M173.227 201.486C173.931 201.848 174.478 202.296 174.873 202.836V201.131H177.321V213.045C177.321 214.124 177.097 215.085 176.643 215.928C176.189 216.771 175.531 217.435 174.675 217.916C173.819 218.396 172.792 218.64 171.601 218.64C170.015 218.64 168.692 218.265 167.645 217.521C166.598 216.777 165.999 215.763 165.861 214.486H168.264C168.448 215.099 168.843 215.586 169.442 215.967C170.048 216.343 170.765 216.534 171.601 216.534C172.582 216.534 173.372 216.237 173.971 215.638C174.576 215.046 174.873 214.177 174.873 213.045V211.09C174.458 211.643 173.905 212.11 173.201 212.485C172.496 212.861 171.7 213.051 170.805 213.051C169.784 213.051 168.85 212.795 168.007 212.275C167.165 211.755 166.5 211.037 166.006 210.103C165.519 209.174 165.275 208.121 165.275 206.943C165.275 205.765 165.519 204.725 166.006 203.816C166.493 202.908 167.165 202.204 168.007 201.697C168.85 201.197 169.784 200.94 170.805 200.94C171.713 200.94 172.516 201.118 173.22 201.48L173.227 201.486ZM174.372 204.883C174.037 204.29 173.602 203.836 173.062 203.52C172.523 203.211 171.943 203.053 171.318 203.053C170.693 203.053 170.113 203.204 169.574 203.507C169.034 203.81 168.599 204.257 168.264 204.85C167.928 205.436 167.764 206.14 167.764 206.943C167.764 207.746 167.928 208.464 168.264 209.069C168.599 209.681 169.034 210.142 169.58 210.465C170.127 210.781 170.706 210.945 171.311 210.945C171.917 210.945 172.516 210.787 173.056 210.478C173.596 210.168 174.03 209.708 174.366 209.109C174.701 208.503 174.866 207.799 174.866 206.989C174.866 206.179 174.701 205.482 174.366 204.883H174.372Z" fill="#293E33"/>
<path d="M182.087 197.115V212.854H179.664V197.115H182.087Z" fill="#293E33"/>
<path d="M195.082 207.904H186.123C186.195 208.839 186.544 209.589 187.163 210.162C187.788 210.728 188.552 211.011 189.46 211.011C190.764 211.011 191.685 210.464 192.225 209.372H194.838C194.483 210.451 193.844 211.333 192.916 212.018C191.988 212.709 190.836 213.051 189.46 213.051C188.341 213.051 187.334 212.801 186.452 212.294C185.563 211.794 184.872 211.083 184.365 210.168C183.865 209.253 183.609 208.194 183.609 206.989C183.609 205.784 183.852 204.725 184.339 203.81C184.826 202.895 185.517 202.19 186.399 201.69C187.288 201.196 188.302 200.946 189.454 200.946C190.606 200.946 191.547 201.19 192.409 201.67C193.271 202.151 193.949 202.829 194.43 203.704C194.91 204.573 195.154 205.58 195.154 206.712C195.154 207.154 195.128 207.548 195.068 207.904H195.082ZM192.633 205.942C192.62 205.047 192.297 204.336 191.679 203.796C191.053 203.257 190.283 202.987 189.362 202.987C188.526 202.987 187.808 203.25 187.216 203.783C186.623 204.316 186.268 205.034 186.149 205.942H192.64H192.633Z" fill="#293E33"/>
<path d="M196.621 203.816C197.108 202.908 197.779 202.204 198.622 201.697C199.464 201.196 200.399 200.94 201.419 200.94C202.341 200.94 203.144 201.117 203.835 201.479C204.52 201.841 205.072 202.289 205.481 202.829V201.124H207.929V212.847H205.481V211.103C205.066 211.656 204.506 212.117 203.802 212.485C203.091 212.854 202.281 213.038 201.38 213.038C200.373 213.038 199.451 212.781 198.615 212.261C197.779 211.741 197.114 211.024 196.627 210.089C196.14 209.161 195.897 208.108 195.897 206.93C195.897 205.751 196.14 204.711 196.627 203.803L196.621 203.816ZM204.98 204.883C204.645 204.29 204.21 203.836 203.67 203.52C203.131 203.211 202.551 203.053 201.926 203.053C201.301 203.053 200.721 203.204 200.182 203.507C199.642 203.81 199.207 204.257 198.872 204.85C198.536 205.435 198.372 206.14 198.372 206.943C198.372 207.746 198.536 208.463 198.872 209.069C199.207 209.681 199.642 210.142 200.188 210.464C200.735 210.78 201.314 210.945 201.919 210.945C202.525 210.945 203.124 210.787 203.664 210.478C204.204 210.168 204.638 209.707 204.974 209.108C205.309 208.503 205.474 207.799 205.474 206.989C205.474 206.179 205.309 205.482 204.974 204.883H204.98Z" fill="#293E33"/>
<path d="M212.418 210.879H217.737V212.86H209.614V210.879L214.953 203.112H209.614V201.131H217.737V203.112L212.418 210.879Z" fill="#293E33"/>
<path d="M130.402 201.276H127.762C124.603 191.869 115.704 185.076 105.251 185.076C93.0074 185.076 82.9034 194.39 81.6461 206.298C81.5606 207.121 81.5145 207.963 81.5145 208.812H79C79 207.891 79.0461 206.956 79.1448 206.035C79.8228 199.63 82.8375 193.706 87.6427 189.355C92.4808 184.971 98.7341 182.562 105.251 182.562C116.539 182.562 126.545 189.756 130.145 200.473C130.237 200.736 130.316 201.006 130.402 201.276Z" fill="#293E33"/>
<path d="M113.491 201.276H109.508C108.251 200.565 106.796 200.157 105.25 200.157C101.346 200.157 98.0418 202.75 96.9622 206.305C96.7187 207.101 96.5871 207.944 96.5871 208.819H94.0726C94.0726 207.957 94.1713 207.114 94.3556 206.305C95.501 201.348 99.9441 197.649 105.243 197.649C108.501 197.649 111.437 199.051 113.484 201.282L113.491 201.276Z" fill="#29AB87"/>
<path d="M119.593 201.276H116.664C114.215 197.576 110.009 195.128 105.25 195.128C98.5625 195.128 92.9806 199.953 91.7958 206.298C91.6444 207.114 91.5654 207.95 91.5654 208.812H89.0509C89.0509 207.957 89.1167 207.121 89.2484 206.298C90.4529 198.544 97.1604 192.613 105.25 192.613C111.477 192.613 116.881 196.122 119.593 201.269V201.276Z" fill="#293E33"/>
<path d="M125.091 201.276H122.372C119.469 194.7 112.887 190.105 105.245 190.105C95.7792 190.105 87.933 197.168 86.702 206.305C86.5901 207.127 86.5309 207.963 86.5309 208.819H84.0164C84.0164 207.97 84.0691 207.127 84.1678 206.305C85.4119 195.779 94.3903 187.591 105.245 187.591C114.296 187.591 122.036 193.285 125.084 201.276H125.091Z" fill="#29AB87"/>
<path d="M128.987 208.819C128.987 209.668 128.941 210.504 128.855 211.333C128.842 211.445 128.829 211.564 128.816 211.676C128.73 212.406 128.605 213.137 128.454 213.848C126.143 224.531 116.619 232.562 105.251 232.562C93.0075 232.562 82.9035 223.248 81.6462 211.34C81.5607 210.517 81.5146 209.675 81.5146 208.826H84.0291C84.0291 209.675 84.0817 210.517 84.1805 211.34C85.4245 221.865 94.403 230.054 105.257 230.054C115.23 230.054 123.616 223.142 125.88 213.855C126.084 213.032 126.235 212.196 126.334 211.34C126.433 210.517 126.486 209.675 126.486 208.826V206.311H113.545C113.268 205.403 112.847 204.554 112.307 203.797H128.46C128.638 204.619 128.776 205.455 128.862 206.311C128.947 207.134 128.994 207.976 128.994 208.826L128.987 208.819Z" fill="#29AB87"/>
<path d="M123.964 208.819C123.964 209.668 123.905 210.511 123.793 211.334C123.674 212.189 123.503 213.032 123.273 213.848C121.074 221.734 113.827 227.533 105.25 227.533C95.7845 227.533 87.9383 220.47 86.7074 211.334C86.5955 210.511 86.5363 209.675 86.5363 208.819H89.0507C89.0507 209.675 89.1166 210.511 89.2482 211.334C90.4528 219.088 97.1603 225.018 105.25 225.018C112.445 225.018 118.54 220.332 120.653 213.848C120.916 213.038 121.12 212.196 121.252 211.334H105.25V208.819H123.964Z" fill="#293E33"/>
<path d="M117.981 213.841C115.973 218.91 111.023 222.497 105.251 222.497C98.5628 222.497 92.981 217.672 91.7961 211.327C91.6447 210.511 91.5657 209.675 91.5657 208.812H94.0802C94.0802 209.675 94.179 210.517 94.3633 211.327C95.5086 216.284 99.9517 219.983 105.251 219.983C109.602 219.983 113.386 217.482 115.229 213.835H117.981V213.841Z" fill="#29AB87"/>
</svg>
