<svg width="23" height="23" viewBox="0 0 23 23" fill="none" xmlns="http://www.w3.org/2000/svg">
<path d="M11.217 3.22498C15.2409 3.22498 18.5451 4.40271 18.5451 5.84216V17.3578C18.5451 18.83 15.2409 19.975 11.217 19.975C7.16034 19.975 3.88885 18.83 3.88885 17.3578V5.84216C3.88885 4.40271 7.16034 3.22498 11.217 3.22498ZM11.217 18.4047C14.423 18.4047 16.4841 17.6522 16.9748 17.1942V14.806C15.6008 15.3949 13.4743 15.7875 11.1843 15.7875C8.86151 15.7875 6.80048 15.3949 5.45917 14.806V17.1942C5.91718 17.6522 7.97821 18.4047 11.217 18.4047ZM16.9748 13.0067V10.6185C15.6008 11.2074 13.5397 11.6 11.217 11.6C8.86151 11.6 6.80048 11.2074 5.45917 10.6185V13.0067C5.91718 13.4647 7.97821 14.2172 11.217 14.2172C14.423 14.2172 16.4841 13.4647 16.9748 13.0067ZM16.9748 8.81921V6.03845C16.4841 5.58044 14.423 4.79529 11.217 4.79529C7.97821 4.79529 5.91718 5.58044 5.45917 6.03845V8.81921C5.91718 9.27722 7.91278 10.0297 11.1843 10.0297C14.423 10.0297 16.4841 9.27722 16.9748 8.81921Z" fill="#FDFDFD"/>
</svg>
