<svg width="24" height="23" viewBox="0 0 24 23" fill="none" xmlns="http://www.w3.org/2000/svg">
<path d="M19.2687 5.31873C20.4137 5.31873 21.3624 6.26746 21.3624 7.41248V15.7875C21.3624 16.9652 20.4137 17.8812 19.2687 17.8812H4.61243C3.43469 17.8812 2.51868 16.9652 2.51868 15.7875V7.41248C2.51868 6.26746 3.43469 5.31873 4.61243 5.31873H19.2687ZM19.7921 14.2172V8.98279C18.6144 8.98279 17.6984 8.06677 17.6984 6.88904H6.18274C6.18274 8.06677 5.23401 8.98279 4.08899 8.98279V14.2172C5.23401 14.2172 6.18274 15.1659 6.18274 16.3109H17.6984C17.6984 15.1659 18.6144 14.2172 19.7921 14.2172ZM14.5577 11.6C14.5577 9.86609 13.38 8.45935 11.9406 8.45935C10.4684 8.45935 9.32336 9.86609 9.32336 11.6C9.32336 13.3339 10.4684 14.7406 11.9406 14.7406C13.38 14.7406 14.5577 13.3666 14.5577 11.6Z" fill="#FDFDFD"/>
</svg>
