<svg width="23" height="23" viewBox="0 0 23 23" fill="none" xmlns="http://www.w3.org/2000/svg">
<path d="M10.2824 9.13342L12.1144 13.3209C12.2453 13.6808 12.1144 14.0406 11.7873 14.2042C11.6891 14.2369 11.591 14.2369 11.5256 14.2369C11.2639 14.2369 11.0021 14.1061 10.904 13.8771L10.7404 13.4518H8.64667C8.61395 13.4518 8.61395 13.4518 8.61395 13.4518L8.45038 13.8444C8.2868 14.1715 7.92694 14.3024 7.56708 14.1715C7.23993 14.0406 7.10907 13.6481 7.23993 13.3209L9.07196 9.13342C9.30096 8.6427 10.0534 8.6427 10.2824 9.13342ZM9.20282 12.1432H10.1516L9.69354 11.0309L9.20282 12.1432ZM13.881 8.74084C14.2409 8.74084 14.5353 9.03528 14.5353 9.39514V13.5826C14.5353 13.9752 14.2409 14.2369 13.881 14.2369C13.4885 14.2369 13.2267 13.9752 13.2267 13.5826V9.39514C13.2267 9.03528 13.4885 8.74084 13.881 8.74084ZM18.8537 12.274H17.5451V13.8444H18.8537C19.279 13.8444 19.6389 14.2042 19.6389 14.6295C19.6389 15.0875 19.279 15.4147 18.8537 15.4147H17.5451V15.6764C17.5451 16.8541 16.5964 17.7701 15.4514 17.7701H15.1896V19.0787C15.1896 19.5367 14.8298 19.8639 14.4045 19.8639C13.9465 19.8639 13.6193 19.5367 13.6193 19.0787V17.7701H12.049V19.0787C12.049 19.5367 11.6891 19.8639 11.2639 19.8639C10.8058 19.8639 10.4787 19.5367 10.4787 19.0787V17.7701H8.90839V19.0787C8.90839 19.5367 8.54852 19.8639 8.12323 19.8639C7.66522 19.8639 7.33807 19.5367 7.33807 19.0787V17.7701H7.07635C5.89862 17.7701 4.9826 16.8541 4.9826 15.6764V15.4147H3.67401C3.216 15.4147 2.88885 15.0875 2.88885 14.6295C2.88885 14.2042 3.216 13.8444 3.67401 13.8444H4.9826V12.274H3.67401C3.216 12.274 2.88885 11.9469 2.88885 11.4889C2.88885 11.0636 3.216 10.7037 3.67401 10.7037H4.9826V9.13342H3.67401C3.216 9.13342 2.88885 8.80627 2.88885 8.34827C2.88885 7.92297 3.216 7.56311 3.67401 7.56311H4.9826V7.30139C4.9826 6.15637 5.89862 5.20764 7.07635 5.20764H7.33807V3.89905C7.33807 3.47375 7.66522 3.11389 8.12323 3.11389C8.54852 3.11389 8.90839 3.47375 8.90839 3.89905V5.20764H10.4787V3.89905C10.4787 3.47375 10.8058 3.11389 11.2639 3.11389C11.6891 3.11389 12.049 3.47375 12.049 3.89905V5.20764H13.6193V3.89905C13.6193 3.47375 13.9465 3.11389 14.4045 3.11389C14.8298 3.11389 15.1896 3.47375 15.1896 3.89905V5.20764H15.4514C16.5964 5.20764 17.5451 6.15637 17.5451 7.30139V7.56311H18.8537C19.279 7.56311 19.6389 7.92297 19.6389 8.34827C19.6389 8.80627 19.279 9.13342 18.8537 9.13342H17.5451V10.7037H18.8537C19.279 10.7037 19.6389 11.0636 19.6389 11.4889C19.6389 11.9469 19.279 12.274 18.8537 12.274ZM15.9748 15.6764V7.30139C15.9748 7.03967 15.7131 6.77795 15.4514 6.77795H7.07635C6.78192 6.77795 6.55292 7.03967 6.55292 7.30139V15.6764C6.55292 15.9708 6.78192 16.1998 7.07635 16.1998H15.4514C15.7131 16.1998 15.9748 15.9708 15.9748 15.6764Z" fill="#FDFDFD"/>
</svg>
