<svg width="139" height="50" viewBox="0 0 139 50" fill="none" xmlns="http://www.w3.org/2000/svg">
<path d="M77.4286 19.7671C77.0468 19.0299 76.5136 18.4703 75.8357 18.0951C75.1577 17.7199 74.3678 17.5291 73.4726 17.5291C72.4918 17.5291 71.6229 17.7463 70.8594 18.1873C70.0958 18.6283 69.4968 19.2537 69.0624 20.0567C68.6279 20.8664 68.4107 21.801 68.4107 22.8674C68.4107 23.9337 68.6279 24.8685 69.0624 25.6847C69.4968 26.5009 70.0958 27.1262 70.8594 27.5672C71.6229 28.0083 72.4984 28.2255 73.4726 28.2255C74.7891 28.2255 75.862 27.8569 76.6848 27.1196C77.5076 26.3824 78.0079 25.3819 78.1922 24.1181H72.6432V22.1828H80.7922V24.0786C80.6342 25.2305 80.2261 26.2837 79.5679 27.2513C78.9097 28.2189 78.0474 28.9825 76.9942 29.5617C75.9344 30.1344 74.7627 30.424 73.4726 30.424C72.0837 30.424 70.8133 30.1015 69.6679 29.4564C68.5226 28.8113 67.6077 27.9161 66.9362 26.7642C66.2648 25.6123 65.9291 24.3155 65.9291 22.874C65.9291 21.4324 66.2648 20.1291 66.9362 18.9838C67.6077 17.8319 68.5226 16.9366 69.6811 16.2916C70.8396 15.6465 72.1034 15.324 73.4792 15.324C75.0524 15.324 76.4544 15.7123 77.6787 16.4824C78.9031 17.2526 79.7983 18.3519 80.3512 19.7671H77.4352H77.4286Z" fill="white"/>
<path d="M82.4523 16.5746C82.156 16.2784 82.0046 15.9097 82.0046 15.4687C82.0046 15.0277 82.156 14.6591 82.4523 14.3629C82.7485 14.0667 83.1171 13.9153 83.5581 13.9153C83.9991 13.9153 84.348 14.0667 84.6442 14.3629C84.9404 14.6591 85.0918 15.0277 85.0918 15.4687C85.0918 15.9097 84.9404 16.2784 84.6442 16.5746C84.348 16.8708 83.986 17.0222 83.5581 17.0222C83.1302 17.0222 82.7485 16.8708 82.4523 16.5746ZM84.7495 18.5756V30.2989H82.3272V18.5756H84.7495Z" fill="white"/>
<path d="M94.2269 18.9245C94.9313 19.2866 95.4776 19.7342 95.8725 20.2739V18.5691H98.3212V30.4832C98.3212 31.5627 98.0974 32.5238 97.6432 33.3663C97.189 34.2089 96.5308 34.8737 95.6751 35.3542C94.8194 35.8348 93.7925 36.0783 92.6011 36.0783C91.0147 36.0783 89.6917 35.7031 88.6451 34.9593C87.5985 34.2155 86.9994 33.2018 86.8612 31.9248H89.2638C89.4481 32.5369 89.843 33.024 90.442 33.4058C91.0476 33.781 91.7651 33.9719 92.6011 33.9719C93.5819 33.9719 94.3717 33.6757 94.9707 33.0767C95.5763 32.4843 95.8725 31.6154 95.8725 30.4832V28.5283C95.4578 29.0812 94.9049 29.5485 94.2006 29.9237C93.4963 30.2989 92.6998 30.4898 91.8046 30.4898C90.7843 30.4898 89.8496 30.2331 89.0071 29.7131C88.1645 29.1931 87.4997 28.4756 87.006 27.5409C86.5189 26.6128 86.2754 25.5596 86.2754 24.3813C86.2754 23.2031 86.5189 22.1631 87.006 21.2547C87.4931 20.3463 88.1645 19.642 89.0071 19.1352C89.8496 18.6349 90.7843 18.3782 91.8046 18.3782C92.713 18.3782 93.516 18.5559 94.2203 18.9179L94.2269 18.9245ZM95.3723 22.3211C95.0366 21.7287 94.6021 21.2745 94.0624 20.9585C93.5226 20.6491 92.9434 20.4911 92.318 20.4911C91.6927 20.4911 91.1135 20.6425 90.5737 20.9453C90.0339 21.2481 89.5995 21.6957 89.2638 22.2881C88.9281 22.874 88.7635 23.5783 88.7635 24.3813C88.7635 25.1844 88.9281 25.9019 89.2638 26.5075C89.5995 27.1196 90.0339 27.5804 90.5803 27.9029C91.1266 28.2189 91.7059 28.3834 92.3114 28.3834C92.917 28.3834 93.516 28.2255 94.0558 27.9161C94.5955 27.6067 95.03 27.146 95.3657 26.547C95.7014 25.9414 95.8659 25.237 95.8659 24.4274C95.8659 23.6178 95.7014 22.9201 95.3657 22.3211H95.3723Z" fill="white"/>
<path d="M103.087 14.5537V30.2923H100.664V14.5537H103.087Z" fill="white"/>
<path d="M116.082 25.3424H107.123C107.195 26.2771 107.544 27.0275 108.163 27.6001C108.788 28.1662 109.552 28.4493 110.46 28.4493C111.764 28.4493 112.685 27.9029 113.225 26.8102H115.838C115.483 27.8898 114.844 28.7718 113.916 29.4564C112.988 30.1475 111.836 30.4898 110.46 30.4898C109.341 30.4898 108.334 30.2397 107.452 29.7328C106.563 29.2326 105.872 28.5217 105.365 27.6067C104.865 26.6918 104.609 25.632 104.609 24.4274C104.609 23.2228 104.852 22.1631 105.339 21.2481C105.826 20.3332 106.517 19.6288 107.399 19.1286C108.288 18.6349 109.302 18.3848 110.454 18.3848C111.606 18.3848 112.547 18.6283 113.409 19.1089C114.271 19.5894 114.949 20.2673 115.43 21.1428C115.91 22.0117 116.154 23.0188 116.154 24.151C116.154 24.592 116.128 24.9869 116.068 25.3424H116.082ZM113.633 23.3808C113.62 22.4856 113.297 21.7747 112.679 21.235C112.053 20.6952 111.283 20.4253 110.362 20.4253C109.526 20.4253 108.808 20.6886 108.216 21.2218C107.623 21.755 107.268 22.4725 107.149 23.3808H113.64H113.633Z" fill="white"/>
<path d="M117.621 21.2547C118.108 20.3463 118.779 19.642 119.622 19.1352C120.464 18.6349 121.399 18.3782 122.419 18.3782C123.341 18.3782 124.144 18.5559 124.835 18.9179C125.52 19.28 126.072 19.7276 126.481 20.2673V18.5625H128.929V30.2858H126.481V28.5414C126.066 29.0943 125.506 29.5551 124.802 29.9237C124.091 30.2924 123.281 30.4766 122.38 30.4766C121.373 30.4766 120.451 30.2199 119.615 29.6999C118.779 29.1799 118.114 28.4624 117.627 27.5277C117.14 26.5996 116.897 25.5464 116.897 24.3682C116.897 23.1899 117.14 22.1499 117.627 21.2415L117.621 21.2547ZM125.98 22.3211C125.645 21.7287 125.21 21.2745 124.67 20.9585C124.131 20.6491 123.551 20.4911 122.926 20.4911C122.301 20.4911 121.721 20.6425 121.182 20.9453C120.642 21.2481 120.207 21.6957 119.872 22.2881C119.536 22.874 119.372 23.5783 119.372 24.3813C119.372 25.1844 119.536 25.9019 119.872 26.5075C120.207 27.1196 120.642 27.5804 121.188 27.9029C121.735 28.2189 122.314 28.3834 122.919 28.3834C123.525 28.3834 124.124 28.2255 124.664 27.9161C125.204 27.6067 125.638 27.146 125.974 26.547C126.309 25.9414 126.474 25.237 126.474 24.4274C126.474 23.6178 126.309 22.9201 125.974 22.3211H125.98Z" fill="white"/>
<path d="M133.418 28.3176H138.737V30.299H130.614V28.3176L135.953 20.5504H130.614V18.5691H138.737V20.5504L133.418 28.3176Z" fill="white"/>
<path d="M51.402 18.7138H48.7625C45.6029 9.30752 36.7035 2.51449 26.2507 2.51449C14.0074 2.51449 3.90337 11.8286 2.64613 23.7362C2.56056 24.559 2.51448 25.4015 2.51448 26.2507H0C0 25.3291 0.0460777 24.3944 0.144814 23.4729C0.822802 17.0682 3.83755 11.144 8.64271 6.79305C13.4808 2.40917 19.7341 0 26.2507 0C37.5395 0 47.5448 7.19459 51.1453 17.9108C51.2375 18.174 51.3165 18.4439 51.402 18.7138Z" fill="white"/>
<path d="M34.4907 18.7138H30.5083C29.2511 18.0029 27.7964 17.5948 26.2495 17.5948C22.3461 17.5948 19.0418 20.1883 17.9622 23.7428C17.7187 24.5393 17.5871 25.3818 17.5871 26.2573H15.0726C15.0726 25.395 15.1713 24.5524 15.3556 23.7428C16.501 18.7862 20.9441 15.0869 26.2429 15.0869C29.5012 15.0869 32.437 16.489 34.4841 18.7204L34.4907 18.7138Z" fill="#29AB87"/>
<path d="M40.5933 18.7137H37.6641C35.2155 15.0144 31.0093 12.5658 26.2502 12.5658C19.5625 12.5658 13.9806 17.3906 12.7958 23.7361C12.6444 24.5523 12.5654 25.3883 12.5654 26.2506H10.0509C10.0509 25.3949 10.1167 24.5589 10.2484 23.7361C11.4529 15.982 18.1604 10.0513 26.2502 10.0513C32.4772 10.0513 37.8813 13.5597 40.5933 18.7071V18.7137Z" fill="white"/>
<path d="M46.0907 18.7139H43.3721C40.4693 12.138 33.8869 7.54354 26.2447 7.54354C16.7792 7.54354 8.93295 14.6065 7.70204 23.7428C7.59014 24.5656 7.5309 25.4016 7.5309 26.2573H5.01642C5.01642 25.4082 5.06908 24.5656 5.16782 23.7428C6.4119 13.2176 15.3903 5.02905 26.2447 5.02905C35.2955 5.02905 43.0364 10.7228 46.0841 18.7139H46.0907Z" fill="#29AB87"/>
<path d="M49.9869 26.2572C49.9869 27.1064 49.9408 27.9423 49.8553 28.7717C49.8421 28.8836 49.8289 29.0021 49.8158 29.114C49.7302 29.8446 49.6052 30.5753 49.4538 31.2862C47.1433 41.9695 37.6186 50 26.2508 50C14.0075 50 3.90348 40.6859 2.64624 28.7783C2.56067 27.9555 2.51459 27.113 2.51459 26.2638H5.02907C5.02907 27.113 5.08173 27.9555 5.18047 28.7783C6.42454 39.3036 15.403 47.4921 26.2573 47.4921C36.2297 47.4921 44.6157 40.5805 46.88 31.2928C47.0841 30.47 47.2355 29.634 47.3342 28.7783C47.433 27.9555 47.4856 27.113 47.4856 26.2638V23.7493H34.5446C34.2681 22.841 33.8469 21.9918 33.3071 21.2349H49.4603C49.6381 22.0577 49.7763 22.8936 49.8619 23.7493C49.9474 24.5721 49.9935 25.4147 49.9935 26.2638L49.9869 26.2572Z" fill="#29AB87"/>
<path d="M44.9638 26.2573C44.9638 27.1065 44.9046 27.949 44.7927 28.7718C44.6742 29.6275 44.5031 30.4701 44.2727 31.2863C42.0742 39.172 34.8269 44.9711 26.2501 44.9711C16.7845 44.9711 8.9383 37.9082 7.70739 28.7718C7.59549 27.949 7.53625 27.113 7.53625 26.2573H10.0507C10.0507 27.113 10.1166 27.949 10.2482 28.7718C11.4528 36.5259 18.1603 42.4566 26.2501 42.4566C33.4446 42.4566 39.5399 37.77 41.6529 31.2863C41.9162 30.4767 42.1202 29.6341 42.2519 28.7718H26.2501V26.2573H44.9638Z" fill="white"/>
<path d="M38.9809 31.2797C36.9733 36.3482 32.0233 39.9355 26.2506 39.9355C19.5628 39.9355 13.981 35.1107 12.7961 28.7652C12.6447 27.949 12.5657 27.113 12.5657 26.2507H15.0802C15.0802 27.113 15.179 27.9556 15.3633 28.7652C16.5086 33.7218 20.9517 37.4211 26.2506 37.4211C30.6015 37.4211 34.3864 34.9198 36.2295 31.2731H38.9809V31.2797Z" fill="#29AB87"/>
</svg>
